<?xml version="1.0" encoding="utf-8" ?>
<svg baseProfile="full" height="1536" version="1.1" width="1024" xmlns="http://www.w3.org/2000/svg" xmlns:ev="http://www.w3.org/2001/xml-events" xmlns:xlink="http://www.w3.org/1999/xlink"><defs><linearGradient id="grad1" x1="0%" x2="0%" y1="0%" y2="100%"><stop offset="0" stop-color="#FFB347" /><stop offset="1" stop-color="#FF5227" /></linearGradient></defs><polygon fill="url(#grad1)" points="261.0,401.0 260.0,402.0 255.0,402.0 254.0,403.0 250.0,403.0 249.0,404.0 246.0,404.0 245.0,405.0 243.0,405.0 242.0,406.0 240.0,406.0 239.0,407.0 238.0,407.0 237.0,408.0 235.0,408.0 234.0,409.0 233.0,409.0 232.0,410.0 230.0,410.0 229.0,411.0 228.0,411.0 227.0,412.0 226.0,412.0 224.0,414.0 223.0,414.0 222.0,415.0 221.0,415.0 219.0,417.0 218.0,417.0 216.0,419.0 215.0,419.0 212.0,422.0 211.0,422.0 199.0,434.0 199.0,435.0 195.0,439.0 195.0,440.0 193.0,442.0 193.0,443.0 191.0,445.0 191.0,446.0 189.0,448.0 189.0,449.0 188.0,450.0 188.0,451.0 187.0,452.0 187.0,454.0 186.0,455.0 186.0,456.0 185.0,457.0 185.0,458.0 184.0,459.0 184.0,461.0 183.0,462.0 183.0,464.0 182.0,465.0 182.0,468.0 181.0,469.0 181.0,471.0 180.0,472.0 180.0,477.0 179.0,478.0 179.0,482.0 178.0,483.0 179.0,484.0 178.0,485.0 178.0,503.0 177.0,504.0 177.0,518.0 178.0,519.0 178.0,522.0 177.0,523.0 177.0,563.0 178.0,564.0 178.0,565.0 181.0,568.0 183.0,568.0 184.0,569.0 395.0,569.0 396.0,570.0 397.0,570.0 399.0,572.0 400.0,572.0 401.0,573.0 401.0,574.0 403.0,576.0 403.0,577.0 404.0,578.0 404.0,1020.0 405.0,1021.0 405.0,1027.0 406.0,1028.0 406.0,1033.0 407.0,1034.0 407.0,1038.0 408.0,1039.0 408.0,1042.0 409.0,1043.0 409.0,1045.0 410.0,1046.0 410.0,1049.0 411.0,1050.0 411.0,1052.0 412.0,1053.0 412.0,1055.0 413.0,1056.0 413.0,1057.0 414.0,1058.0 414.0,1059.0 415.0,1060.0 415.0,1062.0 416.0,1063.0 416.0,1064.0 417.0,1065.0 417.0,1066.0 418.0,1067.0 418.0,1068.0 419.0,1069.0 419.0,1070.0 420.0,1071.0 420.0,1072.0 422.0,1074.0 422.0,1075.0 423.0,1076.0 423.0,1077.0 424.0,1078.0 424.0,1079.0 426.0,1081.0 426.0,1082.0 428.0,1084.0 428.0,1085.0 431.0,1088.0 431.0,1089.0 434.0,1092.0 434.0,1093.0 439.0,1098.0 439.0,1099.0 453.0,1113.0 454.0,1113.0 459.0,1118.0 460.0,1118.0 463.0,1121.0 464.0,1121.0 466.0,1123.0 467.0,1123.0 469.0,1125.0 470.0,1125.0 472.0,1127.0 473.0,1127.0 475.0,1129.0 476.0,1129.0 477.0,1130.0 478.0,1130.0 479.0,1131.0 480.0,1131.0 482.0,1133.0 483.0,1133.0 484.0,1134.0 485.0,1134.0 486.0,1135.0 487.0,1135.0 488.0,1136.0 490.0,1136.0 491.0,1137.0 492.0,1137.0 493.0,1138.0 494.0,1138.0 495.0,1139.0 496.0,1139.0 497.0,1140.0 499.0,1140.0 500.0,1141.0 501.0,1141.0 502.0,1142.0 504.0,1142.0 505.0,1143.0 507.0,1143.0 508.0,1144.0 510.0,1144.0 511.0,1145.0 514.0,1145.0 515.0,1146.0 518.0,1146.0 519.0,1147.0 523.0,1147.0 524.0,1148.0 527.0,1148.0 528.0,1149.0 533.0,1149.0 534.0,1150.0 543.0,1150.0 544.0,1151.0 592.0,1151.0 593.0,1150.0 594.0,1150.0 596.0,1148.0 596.0,1147.0 597.0,1146.0 597.0,579.0 598.0,578.0 598.0,577.0 599.0,576.0 599.0,575.0 604.0,570.0 605.0,570.0 606.0,569.0 608.0,569.0 609.0,568.0 725.0,568.0 726.0,567.0 732.0,567.0 733.0,566.0 737.0,566.0 738.0,565.0 741.0,565.0 742.0,564.0 745.0,564.0 746.0,563.0 748.0,563.0 749.0,562.0 751.0,562.0 752.0,561.0 753.0,561.0 754.0,560.0 756.0,560.0 757.0,559.0 758.0,559.0 759.0,558.0 760.0,558.0 761.0,557.0 762.0,557.0 763.0,556.0 764.0,556.0 765.0,555.0 766.0,555.0 767.0,554.0 768.0,554.0 769.0,553.0 770.0,553.0 772.0,551.0 773.0,551.0 774.0,550.0 775.0,550.0 777.0,548.0 778.0,548.0 780.0,546.0 781.0,546.0 784.0,543.0 785.0,543.0 791.0,537.0 792.0,537.0 802.0,527.0 802.0,526.0 807.0,521.0 807.0,520.0 809.0,518.0 809.0,517.0 811.0,515.0 811.0,514.0 813.0,512.0 813.0,511.0 815.0,509.0 815.0,508.0 816.0,507.0 816.0,506.0 818.0,504.0 818.0,503.0 819.0,502.0 819.0,501.0 820.0,500.0 820.0,499.0 821.0,498.0 821.0,497.0 822.0,496.0 822.0,494.0 823.0,493.0 823.0,492.0 824.0,491.0 824.0,489.0 825.0,488.0 825.0,486.0 826.0,485.0 826.0,483.0 827.0,482.0 827.0,480.0 828.0,479.0 828.0,476.0 829.0,475.0 829.0,471.0 830.0,470.0 830.0,464.0 831.0,463.0 831.0,452.0 832.0,451.0 832.0,432.0 833.0,431.0 832.0,430.0 832.0,423.0 833.0,422.0 833.0,407.0 832.0,406.0 832.0,405.0 831.0,404.0 831.0,403.0 830.0,402.0 829.0,402.0 828.0,401.0" /></svg>